<?xml version="1.0" encoding="UTF-8"?>
<svg id="Layer_1" data-name="Layer 1" xmlns="http://www.w3.org/2000/svg" viewBox="0 0 1000 1000">
  <g>
    <rect x="198.3" y="278.78" width="601.78" height="437.33" fill="#fff"/>
    <path id="_149931160" data-name=" 149931160" d="m443.13,602.12l-107.76-107.76v201.11h-160.12c66.68,109.41,187.19,182.6,324.66,182.6s257.99-73.2,324.68-182.6h-160.17v-201.11l-107.76,107.76-56.77,56.77-56.77-56.77h0Z" fill="#333"/>
    <path d="m909.13,524.5l-29.4-21.63c.02-1.6.06-3.2.06-4.81,0-3.3-.03-6.59-.11-9.87l29.06-21.98c9.55-7.23,7.9-22.04-3.01-26.98l-33.03-14.98c-.96-4.9-2.01-9.77-3.16-14.6l23.74-27.37c7.85-9.05,3.17-23.2-8.53-25.78l-35.32-7.79c-1.97-4.61-4.04-9.18-6.19-13.7l17.53-31.64c5.8-10.48-1.7-23.35-13.68-23.45l-36.25-.31c-2.87-4.07-5.82-8.07-8.84-12.02l10.63-34.69c3.51-11.45-6.5-22.49-18.24-20.11l-35.61,7.22c-3.62-3.37-7.3-6.68-11.06-9.91l3.22-36.17c1.06-11.93-11.02-20.66-22.01-15.9l-33.3,14.41c-4.25-2.56-8.56-5.03-12.92-7.43l-4.33-36.02c-1.43-11.89-15.05-17.93-24.82-11l-29.57,20.97c-4.7-1.62-9.44-3.15-14.21-4.59l-11.69-34.32c-3.86-11.34-18.44-14.42-26.56-5.62l-24.62,26.68c-4.9-.6-9.82-1.1-14.78-1.52l-18.58-31.23c-6.12-10.29-21.03-10.29-27.15,0l-18.54,31.16c-4.98.42-9.94.92-14.87,1.53l-24.57-26.62c-8.12-8.8-22.7-5.72-26.56,5.62l-11.66,34.24c-4.81,1.45-9.59,2.99-14.32,4.62l-29.49-20.92c-9.77-6.93-23.39-.89-24.82,11l-4.32,35.93c-4.39,2.41-8.72,4.9-13,7.48l-33.23-14.38c-10.99-4.76-23.07,3.97-22.01,15.9l3.22,36.11c-3.77,3.25-7.47,6.57-11.11,9.96l-35.55-7.2c-11.74-2.38-21.75,8.66-18.24,20.11l10.61,34.63c-3.04,3.97-6.01,7.99-8.89,12.08l-36.18.31c-11.98.1-19.49,12.98-13.68,23.45l17.49,31.56c-2.17,4.55-4.25,9.15-6.24,13.8l-35.22,7.77c-11.69,2.58-16.38,16.73-8.53,25.78l23.65,27.27c-1.16,4.89-2.24,9.81-3.21,14.77l-32.9,14.92c-10.91,4.95-12.56,19.76-3.01,26.98l28.9,21.87c-.08,3.32-.12,6.64-.12,9.98,0,1.65.04,3.29.06,4.93l-29.24,21.51c-9.65,7.1-8.2,21.93,2.64,27.02l32.76,15.39c.11.6.2,1.21.32,1.8,2.36,12.62,8.56,23.7,17.24,32.14,6.95,6.75,10.23,16.41,8.29,25.91-4.09,20.03-5.54,43.07-1.54,68.29,9.69,61.17,45.72,100.07,72.05,120.98-.15.39-.31.77-.45,1.17h.03c-9.09,24.4-6.71,52.66,8.92,75.91,22.2,33.02,63.86,45.13,99.47,31.35,9.08-3.52,12.54-14.57,7.11-22.65l-24.95-37.1c-4.18-6.22,2.01-14.16,9.06-11.62l80.45,28.97c8.75,3.15,18.41-2.21,20.05-11.36,8.81-48.99-18.72-98.63-67.13-116.06-35.68-12.85-73.78-4.97-101.13,17.43-18.56-15.32-43.5-43.12-50.2-85.43-2.65-16.72-1.88-32.23.61-45.92,2.4-13.16,13.98-22.65,27.36-22.65h.01c11.69,0,21.16-9.48,21.16-21.16v-298.43l246.92,246.91,246.9-246.91v298.44c0,11.69,9.48,21.16,21.16,21.16h0c13.38,0,24.96,9.49,27.36,22.65,2.49,13.69,3.26,29.2.61,45.92-6.71,42.31-31.65,70.11-50.2,85.43-27.36-22.4-65.45-30.28-101.13-17.43-48.4,17.43-75.93,67.07-67.13,116.06,1.65,9.16,11.3,14.51,20.05,11.36l80.45-28.97c7.05-2.54,13.24,5.41,9.06,11.62l-24.95,37.1c-5.43,8.08-1.98,19.14,7.11,22.65,35.61,13.78,77.26,1.67,99.47-31.35,15.63-23.25,18.01-51.51,8.92-75.9,0,0-.28-.79-.43-1.18,26.33-20.9,62.35-59.8,72.05-120.98,4-25.21,2.55-48.23-1.53-68.25-1.94-9.5,1.35-19.17,8.31-25.93,8.7-8.45,14.9-19.53,17.26-32.16.11-.57.2-1.15.3-1.72l32.94-15.47c10.84-5.09,12.29-19.92,2.64-27.02Z" fill="#f26822"/>
  </g>
  <path d="m581.66,292.49c15.42,1.09,24.94,13.63,29.78,20,11.67,15.37,12.07,31.92,12,36.89-.1,7.33-.34,25.46-14.67,38.22-13.37,11.91-29.97,11.1-34.67,10.67-4.37-.4-19-2.36-30.22-14.67-13.06-14.32-11.94-32.16-11.56-38.22.2-3.18,1.82-23.68,18.67-39.11,5.51-5.05,16.16-14.8,30.67-13.78Z" fill="#333"/>
  <path d="m570.09,296.45c6.15.5,9.95,6.3,11.88,9.25,4.65,7.1,4.81,14.76,4.79,17.05-.04,3.39-.14,11.77-5.85,17.67-5.33,5.51-11.95,5.13-13.83,4.93-1.74-.19-7.58-1.09-12.05-6.78-5.21-6.62-4.76-14.87-4.61-17.67.08-1.47.73-10.95,7.44-18.08,2.2-2.33,6.44-6.84,12.23-6.37Z" fill="#fff"/>
  <path d="m426.54,292.49c15.42,1.09,24.94,13.63,29.78,20,11.67,15.37,12.07,31.92,12,36.89-.1,7.33-.34,25.46-14.67,38.22-13.37,11.91-29.97,11.1-34.67,10.67-4.37-.4-19-2.36-30.22-14.67-13.06-14.32-11.94-32.16-11.56-38.22.2-3.18,1.82-23.68,18.67-39.11,5.51-5.05,16.16-14.8,30.67-13.78Z" fill="#333"/>
  <path d="m414.97,296.45c6.15.5,9.95,6.3,11.88,9.25,4.65,7.1,4.81,14.76,4.79,17.05-.04,3.39-.14,11.77-5.85,17.67-5.33,5.51-11.95,5.13-13.83,4.93-1.74-.19-7.58-1.09-12.05-6.78-5.21-6.62-4.76-14.87-4.61-17.67.08-1.47.73-10.95,7.44-18.08,2.2-2.33,6.44-6.84,12.23-6.37Z" fill="#fff"/>
</svg>
